<svg height="480pt" viewBox="0 -23 480 480" width="480pt" xmlns="http://www.w3.org/2000/svg"><path d="m208 66.398438h64v16h-64zm0 0"/><path d="m224 130.398438h32v16h-32zm0 0"/><path d="m280 130.398438h40v16h-40zm0 0"/><path d="m160 130.398438h40v16h-40zm0 0"/><path d="m200 298.398438h80v-32c0-22.398438-17.601562-40-40-40s-40 17.601562-40 40zm16-32c0-13.597657 10.398438-24 24-24s24 10.402343 24 24v16h-48zm0 0"/><path d="m280 194.398438h40v16h-40zm0 0"/><path d="m216 194.398438h48v16h-48zm0 0"/><path d="m304 346.398438h16v56h-16zm0 0"/><path d="m160 346.398438h16v56h-16zm0 0"/><path d="m304 226.398438h16v72h-16zm0 0"/><path d="m160 226.398438h16v72h-16zm0 0"/><path d="m453.601562 130.398438h-101.601562v-16h16v-16h-16v-40h-8v-16h-16v16h-24v-24h-20.800781l-43.199219-34.398438-43.199219 34.398438h-20.800781v24h-24v-16h-16v16h-8v40h-16v16h16v16h-101.601562l-26.398438 62.402343v241.597657h480v-241.597657zm-325.601562 288h-112v-88h112zm0-104h-112v-112h112zm0-128h-108l16.800781-40h91.199219zm112-165.597657 16.800781 13.597657h-34.402343zm-48 29.597657h96v48h-96zm-48 24h32v24h-32zm88 344h-16v-56h16zm32 0h-16v-56h16zm72 0h-56v-72h-80v72h-56v-88h192zm0-104h-192v-136h192zm0-152h-192v-48h192zm0-64h-32v-24h32zm16 48h90.398438l16.800781 40h-107.199219zm112 272h-112v-88h112zm0-104h-112v-112h112zm0 0"/><path d="m424 250.398438h16v48h-16zm0 0"/><path d="m376 250.398438h16v48h-16zm0 0"/><path d="m376 218.398438h16v16h-16zm0 0"/><path d="m424 218.398438h16v16h-16zm0 0"/><path d="m88 250.398438h16v48h-16zm0 0"/><path d="m40 250.398438h16v48h-16zm0 0"/><path d="m40 218.398438h16v16h-16zm0 0"/><path d="m88 218.398438h16v16h-16zm0 0"/><path d="m424 346.398438h16v56h-16zm0 0"/><path d="m376 346.398438h16v56h-16zm0 0"/><path d="m88 346.398438h16v56h-16zm0 0"/><path d="m40 346.398438h16v56h-16zm0 0"/><path d="m160 194.398438h40v16h-40zm0 0"/></svg>